<svg data-v-423bf9ae="" xmlns="http://www.w3.org/2000/svg" viewBox="0 0 NaN NaN" class="iconAbove"><!----><!----><!----><g data-v-423bf9ae="" id="ca807019-e848-4e4d-bd8b-9c3a9d7afc9b" fill="white" transform="matrix(Infinity,0,0,Infinity,0,0)"><path d=""></path></g><!----><g data-v-423bf9ae="" id="f7b236d2-5283-41d6-ab5c-07806a29d65d" transform="matrix(1.6460904431006973,0,0,1.6460904431006973,-32.30452215503486,-36.64234778100101)" stroke="none" fill="white"><path d="M50.06 68.818s11.538-10.332 11.538-23.077S50.06 22.663 50.06 22.663 38.521 32.996 38.521 45.741 50.06 68.818 50.06 68.818zM37.932 40.631c.611-2.8 1.661-5.409 2.886-7.738-4.385-3.03-8.322-4.452-8.322-4.452s-1.833 3.731-2.889 8.928c2.713.668 5.603 1.695 8.325 3.262zM70.442 37.192c-1.061-5.104-2.851-8.752-2.851-8.752s-3.923 1.42-8.298 4.438c1.168 2.219 2.176 4.692 2.798 7.344 2.764-1.476 5.665-2.424 8.351-3.03zM16.194 62.122c2.005-1.353 4.082-2.742 6.734-3.53-1.855-2.664-3.11-5.591-3.95-8.403-5.42 1.206-9.355 3.349-9.355 3.349s1.878 4.585 5.682 9.182c.297-.199.592-.397.889-.598zM76.471 58.428c2.946.747 5.18 2.239 7.336 3.695.57.384 1.135.765 1.708 1.129 4.107-4.768 6.135-9.715 6.135-9.715s-4.872-2.651-11.237-3.717c-.824 2.868-2.068 5.871-3.942 8.608z"></path><path d="M37.366 45.741c0-1.336.124-2.643.339-3.916-8.544-5.098-19.233-4.511-19.233-4.511s-.821 14.891 7.856 23.57c6.979 6.979 17.966 7.813 22.003 7.872-2.85-2.859-10.965-11.972-10.965-23.015zM80.814 37.314s-10.073-.551-18.479 4.081c.263 1.407.415 2.858.415 4.346 0 11.017-8.073 20.111-10.94 22.993 4.569-.169 14.615-1.318 21.147-7.85 8.679-8.679 7.857-23.57 7.857-23.57z"></path><path d="M25.513 61.7a22.269 22.269 0 0 1-1.859-2.124C16.909 61.366 14.085 67.47 5 67.221c0 0 13.629 10.116 23.912 10.116 8.139 0 15.516-5.264 18.24-7.461-5.006-.215-14.988-1.523-21.639-8.176zM75.746 59.431a22.918 22.918 0 0 1-1.973 2.27c-6.287 6.287-15.476 7.822-20.968 8.142 2.689 2.175 10.101 7.495 18.283 7.495C81.372 77.337 95 67.221 95 67.221c-9.351.257-12.067-6.218-19.254-7.79z"></path></g><!----></svg>